<?xml version="1.0" encoding="UTF-8" standalone="no"?>
<!-- Created with Inkscape (http://www.inkscape.org/) -->

<svg
   width="273mm"
   height="70.844002mm"
   viewBox="0 0 273 70.844002"
   version="1.1"
   id="svg5"
   sodipodi:docname="hydrium.svg"
   inkscape:version="1.3 (0e150ed6c4, 2023-07-21)"
   inkscape:export-filename="hydrium.svg"
   inkscape:export-xdpi="96"
   inkscape:export-ydpi="96"
   xmlns:inkscape="http://www.inkscape.org/namespaces/inkscape"
   xmlns:sodipodi="http://sodipodi.sourceforge.net/DTD/sodipodi-0.dtd"
   xmlns="http://www.w3.org/2000/svg"
   xmlns:svg="http://www.w3.org/2000/svg">
  <sodipodi:namedview
     id="namedview7"
     pagecolor="#ffffff"
     bordercolor="#666666"
     borderopacity="1.0"
     inkscape:showpageshadow="2"
     inkscape:pageopacity="0.0"
     inkscape:pagecheckerboard="0"
     inkscape:deskcolor="#d1d1d1"
     inkscape:document-units="mm"
     showgrid="false"
     showguides="true"
     inkscape:zoom="0.49353255"
     inkscape:cx="532.89292"
     inkscape:cy="51.668325"
     inkscape:window-width="1366"
     inkscape:window-height="699"
     inkscape:window-x="0"
     inkscape:window-y="0"
     inkscape:window-maximized="1"
     inkscape:current-layer="layer1" />
  <defs
     id="defs2" />
  <g
     inkscape:label="Camada 1"
     inkscape:groupmode="layer"
     id="layer1">
    <path
       id="text3092-3"
       style="font-size:104.974px;line-height:1.25;font-family:Nirequa;-inkscape-font-specification:Nirequa;fill:#333333;fill-opacity:0.25098;stroke-width:1.53052"
       d="M 97.046818,4.3419516 V 28.695504 h -38.93747 v 14.171744 h 38.93747 V 67.221317 H 110.93998 V 4.3419516 Z"
       inkscape:export-filename="./text3092-3.png"
       inkscape:export-xdpi="96"
       inkscape:export-ydpi="96" />
    <path
       id="text3092"
       style="font-size:104.974px;line-height:1.25;font-family:Nirequa;-inkscape-font-specification:Nirequa;fill:#3d898d;stroke-width:1.45058;fill-opacity:1"
       d="M 55.399944,4.4901465 V 67.369513 h 12.47982 V 4.4901465 Z m 54.352716,0 v 0.543636 c 0.0158,-0.080904 0.0277,-0.1667585 0.0473,-0.2428792 0.0284,-0.1103573 0.0618,-0.1944892 0.0909,-0.3007568 z m 0.60465,20.2948855 c 0.0148,0.028 0.0294,0.05692 0.044,0.08578 0.003,-0.01722 0.004,-0.03605 0.007,-0.05323 -0.0181,-0.0096 -0.0331,-0.02276 -0.0509,-0.03256 z m -0.26837,24.900289 c -0.11195,0.0119 -0.22346,0.02167 -0.33628,0.03721 v 2.519743 c 0.008,2.45e-4 0.0172,-0.0039 0.025,-0.0031 0.10706,-0.598366 0.21405,-1.187041 0.33182,-1.824695 -0.007,-0.243017 -0.0132,-0.486151 -0.0206,-0.729154 z" />
    <text
       xml:space="preserve"
       style="font-size:16.9333px;line-height:1.25;font-family:Nirequa;-inkscape-font-specification:Nirequa;stroke-width:0.264583"
       x="211.27618"
       y="16.853678"
       id="text9"><tspan
         sodipodi:role="line"
         id="tspan9"
         style="stroke-width:0.264583"
         x="211.27618"
         y="16.853678" /></text>
  </g>
</svg>
